<?xml version="1.0" encoding="utf-8"?>
<!-- Generator: Adobe Illustrator 22.1.0, SVG Export Plug-In . SVG Version: 6.00 Build 0)  -->
<svg version="1.1" id="Calque_1" xmlns="http://www.w3.org/2000/svg" xmlns:xlink="http://www.w3.org/1999/xlink" x="0px" y="0px"
	 viewBox="0 0 55.3 55.3" style="enable-background:new 0 0 55.3 55.3;" xml:space="preserve">
<style type="text/css">
	.st0{fill:#231F20;}
	.st1{fill:#FFFFFF;}
</style>
<g>
	<path class="st0" d="M26.8,0.5c-0.5,0-1,0-1.5,0C18.6,0.4,12.5,3.3,7.1,9c-4.8,5.2-6.5,9.3-6.5,14.4c0,2.7,0.5,5.6,1.2,9.1
		c1.3,6.5,5.2,12.8,10.6,17.3c4.2,3.4,8.8,5.2,13.7,5.2c2.5,0,5.1-0.4,7.8-1.3c8.5-2.9,16.6-11.3,19.8-20.4c1-2.9,1.5-5.7,1.5-8.3
		c0-6.5-3-12.2-8.7-16.3C39.6,3.5,33,0.8,26.8,0.5z"/>
	<g>
		<path class="st1" d="M17.1,27.7h-1.9l0,0.1c0,0.4-0.2,3.5-3.1,3.5c-2.5,0-3.8-2.3-3.8-6.8c0-4.5,1.3-6.8,3.8-6.8
			c2.9,0,3.1,3.4,3.1,3.5l0,0.1h1.9c0.2,0,0.3-0.1,0.5-0.2c0.1-0.1,0.2-0.3,0.2-0.4c0-0.9-0.5-5.3-5.6-5.3c-4.1,0-6.3,3.1-6.3,9.1
			c0,5.9,2.2,9.1,6.3,9.1c4.9,0,5.5-4,5.6-5.2c0-0.2,0-0.3-0.2-0.5C17.4,27.8,17.2,27.7,17.1,27.7z"/>
		<path class="st1" d="M46.1,23.5L46.1,23.5l-1.6-0.7c-1.5-0.7-2.1-1.3-2.1-2.5c0-1.5,1.1-2.6,2.8-2.6c1,0,1.8,0.2,2.8,1.2l0.1,0.1
			l0.9-0.8c0.5-0.5,0.4-0.9,0.1-1.1c-0.8-1-2.2-1.5-3.8-1.5c-3.1,0-5.3,2-5.3,4.8c0,2.7,1.7,3.9,3.6,4.7l1.6,0.7
			c1.7,0.7,2.4,1.4,2.4,3c0,2.2-2,2.7-3.1,2.7c-1,0-2.1-0.2-3.5-1.8L41,29.6l-0.9,0.8c-0.5,0.4-0.5,0.8,0,1.3c1.2,1.6,3,1.9,4.3,1.9
			c2.8,0,5.7-1.7,5.7-5C50.1,25.8,48.5,24.5,46.1,23.5z"/>
		<path class="st1" d="M30.2,20.7c0-2.8-2.3-5.2-5.1-5.2c-1.3,0-2.5,0.5-3.4,1.3v-1H20c-0.5,0-0.7,0.3-0.7,0.7v16.4
			c0,0.5,0.3,0.7,0.7,0.7h1.7V20.8c0-1.7,1.4-3.1,3.1-3.1s3.1,1.4,3.1,3.1v12.9h1.7c0.5,0,0.7-0.3,0.7-0.7
			C30.2,32.9,30.2,20.7,30.2,20.7z"/>
		<path class="st1" d="M39.9,16.7c0.1-0.1,0.1-0.2,0.1-0.4c0-0.3-0.2-0.5-0.4-0.6c-0.5-0.2-1-0.3-1.6-0.3c-1.3,0-2.5,0.5-3.4,1.3v-1
			H33c-0.5,0-0.7,0.3-0.7,0.7v16.4c0,0.5,0.3,0.7,0.7,0.7h1.7V20.7c0-1.7,1.4-3.1,3.1-3.1c0.4,0,0.9,0.1,1.2,0.3L39.9,16.7
			L39.9,16.7z"/>
	</g>
</g>
</svg>
