<svg xmlns="http://www.w3.org/2000/svg" viewBox="0 0 613.5 210.7"><defs><style>.cls-1{fill:#231f20;}</style></defs><title>logo_AMU</title><g id="Calque_2" data-name="Calque 2"><g id="Calque_1-2" data-name="Calque 1"><path class="cls-1" d="M124.2,100.9h-8.9l-5.6-16.4H80.6l-5.5,16.4H66.2L89.3,32.5h11.9ZM95.1,38.8,82.9,76.7h24.4Z"/><path class="cls-1" d="M135.3,42.8V30.4h8.6V42.8Zm0,58.1v-50h8.6v50Z"/><path class="cls-1" d="M153.9,100.9l16.4-25.2L154.2,50.9h8.9L175,69.3l11.9-18.4h8.9L179.7,75.7l16.5,25.2h-9L175.1,82.3l-12,18.6Z"/><path class="cls-1" d="M266.2,45.4l-1.3,55.5h-8.5l2.4-68.4H270l19.7,52.9,19.7-52.9h11.2l2.4,68.4h-8.5l-1.3-55.5L295.7,92H283.8Z"/><path class="cls-1" d="M369.9,100.9h-7.3l-.5-3.7a28.33,28.33,0,0,1-16.2,4.7c-9.3,0-13.2-5.5-13.2-14.4,0-10.4,5.2-14.1,15.3-14.1h13.3V65.6c0-6.3-2.8-8.4-10.9-8.4A68.43,68.43,0,0,0,337,58.5l-.9-6.9a58.84,58.84,0,0,1,14.8-1.8c14.3,0,19,5.5,19,16.2v34.9Zm-8.6-20.3H348.6c-5.3,0-7.3,1.6-7.3,6.7s.9,7.2,7.1,7.2a24.57,24.57,0,0,0,12.9-4.1Z"/><path class="cls-1" d="M406.2,57.7a125.94,125.94,0,0,0-14.3,8.6v34.5h-8.6v-50h7.5l.5,7a59.49,59.49,0,0,1,13.8-8Z"/><path class="cls-1" d="M428.8,101.9a49.48,49.48,0,0,1-15.9-2.7l1.1-6.8a58.87,58.87,0,0,0,14.3,2.1c7.9,0,9.2-1.4,9.2-6.8s-.4-6-10.5-8.4c-12.4-3.1-13.6-5.6-13.6-16,0-9.2,4.1-13.5,17.3-13.5a58.17,58.17,0,0,1,14.2,1.7l-.6,7.1a82.91,82.91,0,0,0-13.9-1.4c-7.4,0-8.4,1.7-8.4,6.3,0,5.5.1,6.6,8.5,8.6,14.4,3.6,15.5,5.3,15.5,15.3C446.1,97.2,443.1,101.9,428.8,101.9Z"/><path class="cls-1" d="M476.8,94.5a60.66,60.66,0,0,0,15.8-2.4l1.1,6.9a55.58,55.58,0,0,1-17.7,2.9c-14.8,0-19.8-7.1-19.8-18.4v-15c0-10.4,4.7-18.7,19.6-18.7s18.8,8.5,18.8,18.9V79.2H464.8v4.2C464.9,91.3,467.1,94.5,476.8,94.5ZM464.9,72h21.5V67.9c0-7-2.4-10.9-10.5-10.9s-11,3.9-11,10.9Z"/><path class="cls-1" d="M506,42.8V30.4h8.6V42.8Zm0,58.1v-50h8.6v50Z"/><path class="cls-1" d="M531,100.9V30.4l8.6-1.2v71.7Z"/><path class="cls-1" d="M556.1,100.9V30.4l8.6-1.2v71.7Z"/><path class="cls-1" d="M595.7,94.5a60.66,60.66,0,0,0,15.8-2.4l1.1,6.9a55.58,55.58,0,0,1-17.7,2.9c-14.8,0-19.8-7.1-19.8-18.4v-15c0-10.4,4.7-18.7,19.6-18.7s18.8,8.5,18.8,18.9V79.2H583.8v4.2C583.8,91.3,585.9,94.5,595.7,94.5ZM583.8,72h21.5V67.9c0-7-2.4-10.9-10.5-10.9s-11,3.9-11,10.9Z"/><path class="cls-1" d="M184.4,120.3v40c0,3.7,1.9,5,5.4,5,4.1,0,12.8-2.4,19-5.7V120.3h5.9v49.5h-5.2l-.4-4.5c-5.3,2.5-14.1,5.5-20.1,5.5-7.7,0-10.5-4.4-10.5-11.2V120.3Z"/><path class="cls-1" d="M263.5,169.8v-40c0-3.7-1.9-5-5.4-5-4.1,0-12.8,2.4-19,5.7v39.3h-5.9V120.3h5.2l.4,4.5c5.3-2.5,14.1-5.5,20.1-5.5,7.7,0,10.5,4.4,10.5,11.2v39.3Z"/><path class="cls-1" d="M284.8,130.9V120h5.9v10.9Zm0,38.9v-33h5.9v33Z"/><path class="cls-1" d="M328.4,169.8h-9l-16.8-49.5h6l15.2,45.3,15.3-45.3h6Z"/><path class="cls-1" d="M371.6,165.6a62.57,62.57,0,0,0,15.6-2.3l1,4.8a55.74,55.74,0,0,1-17.1,2.7c-13.9,0-18.4-7.2-18.4-18V137.3c0-10.2,4.6-18,18.5-18s18,7.8,18,18v9.5H358.6V153C358.7,161.8,361.7,165.6,371.6,165.6Zm-12.9-24.1h24.8V137c0-8.3-2.9-12.7-12.2-12.7s-12.6,4.4-12.6,12.7Z"/><path class="cls-1" d="M425.4,125.1c-5.2,2.2-10.9,6-15.6,9.1v35.6h-5.9V120.3h5.3l.3,7.5c5.3-3.5,10.6-6.8,15.2-8.5Z"/><path class="cls-1" d="M449.9,170.8a42.24,42.24,0,0,1-14.5-2.5l1-4.8a49.13,49.13,0,0,0,13.1,2c9.1,0,11-1.7,11-8,0-7.1-.2-7.8-11.5-10.5-12.4-2.9-13.4-6-13.4-15,0-8.2,4-12.7,16.1-12.7a55.94,55.94,0,0,1,14,1.7l-.6,5a79.72,79.72,0,0,0-13.8-1.4c-8.6,0-9.8,2.2-9.8,7.6,0,6.8.4,7.5,9.5,9.9,14.5,3.7,15.3,6,15.3,15.2C466.4,166.2,463.2,170.8,449.9,170.8Z"/><path class="cls-1" d="M480.7,130.9V120h5.9v10.9Zm0,38.9v-33h5.9v33Z"/><path class="cls-1" d="M529.2,169.2a24,24,0,0,1-9.2,1.5c-7.8,0-11.2-2.8-11.2-10.7V125.3h-9.5v-5.1h9.5v-10l5.9-.8v10.8h13.5l-.6,5.1H514.7v34.1c0,4.4.6,6.2,5.7,6.2a23.66,23.66,0,0,0,7.7-1Z"/><path class="cls-1" d="M556.3,165.6a62.57,62.57,0,0,0,15.6-2.3l1,4.8a55.74,55.74,0,0,1-17.1,2.7c-13.9,0-18.4-7.2-18.4-18V137.3c0-10.2,4.6-18,18.5-18s18,7.8,18,18v9.5H543.3V153C543.4,161.8,546.4,165.6,556.3,165.6Zm-12.9-24.1h24.8V137c0-8.3-3-12.7-12.2-12.7s-12.6,4.4-12.6,12.7Z"/><path class="cls-1" d="M549.6,111.2c4.6-1.5,9.9-3.3,15-5.2l1.8,5.1a156.4,156.4,0,0,1-15.2,4.9Z"/><path class="cls-1" d="M244.3,85l-13.5-7.8a4.57,4.57,0,0,1-.6-.4,2.09,2.09,0,0,0,.6-.4l13.5-7.8a2,2,0,0,0,.9-1.4,7.08,7.08,0,0,0,.1-1.4,4.54,4.54,0,0,0-.1-1v-.3l-.3-.2A6.43,6.43,0,0,0,242,63a1.88,1.88,0,0,0-.8.2L227.7,71a2.09,2.09,0,0,0-.6.4V42.3a2.68,2.68,0,0,0-1.5-2,5.69,5.69,0,0,0-1.3-.7l-.3-.1-.3.1s-.6.3-1.3.7a2.68,2.68,0,0,0-1.5,2V71.4a2.09,2.09,0,0,1-.6-.4l-13.5-7.8a1.34,1.34,0,0,0-.8-.2,5.47,5.47,0,0,0-2.9,1.3l-.3.2v.3a5.85,5.85,0,0,0-.1,1,7.08,7.08,0,0,0,.1,1.4,2,2,0,0,0,.9,1.4l13.5,7.8a2.09,2.09,0,0,1,.6.4,2.48,2.48,0,0,0-.6.4L203.7,85a1.84,1.84,0,0,0-.9,1.4,7.08,7.08,0,0,0-.1,1.4,4.54,4.54,0,0,0,.1,1v.3l.3.2a6.43,6.43,0,0,0,2.9,1.3h0a1.88,1.88,0,0,0,.8-.2l13.5-7.8h0a4.57,4.57,0,0,0,.6-.4V98.5a2.68,2.68,0,0,0,1.5,2,5.69,5.69,0,0,0,1.3.7l.3.1.3-.1s.6-.3,1.3-.7a2.68,2.68,0,0,0,1.5-2V82.9h0v-.7a2.48,2.48,0,0,1,.6.4l13.5,7.8a1.34,1.34,0,0,0,.8.2,5.47,5.47,0,0,0,2.9-1.3l.3-.2v-.3a4.54,4.54,0,0,0,.1-1,7.08,7.08,0,0,0-.1-1.4A1.84,1.84,0,0,0,244.3,85Z"/><path class="cls-1" d="M0,105.1A159.2,159.2,0,0,1,2.8,74.2a153.42,153.42,0,0,1,8.6-28.3,211.74,211.74,0,0,1,14.3-28A102.91,102.91,0,0,1,34.3,5.6C36.6,2.9,38.9,0,42.2,0q5.4,0,5.4,3c0,.7-1.7,4.6-5,11.9s-6.5,14.9-9.5,22.8a208.6,208.6,0,0,0-8.2,29.8,183.5,183.5,0,0,0-3.8,37.8,178.74,178.74,0,0,0,3.7,37.3A215.49,215.49,0,0,0,34,173.1c3.2,8.6,5.7,16.3,8.8,23.1s4.8,10.5,4.8,11.1q0,3-5.4,3c-3.4,0-5.7-3.4-7.9-5.9a92.39,92.39,0,0,1-8.6-12.3,217.55,217.55,0,0,1-14.3-27.9,145.63,145.63,0,0,1-8.6-27.9A170.76,170.76,0,0,1,0,105.1Z"/><path class="cls-1" d="M181.2,191.3h2.4l-3.4,19.1h-2.4Z"/><path class="cls-1" d="M204.7,198.6a5.74,5.74,0,0,1-.1,1.2l-1.9,10.6h-2.3l1.9-10.7a4.33,4.33,0,0,1,.1-.5c0-.6-.3-.8-1-.8-1.4,0-3.6,1-5.3,2.1l-1.8,9.9H192l2.4-13.8,2.1-.3-.2,2a12.73,12.73,0,0,1,5.9-2.1A2.15,2.15,0,0,1,204.7,198.6Z"/><path class="cls-1" d="M216.4,196.6l2.4-.3-2.5,14.1H214Zm1-5.9,2.4-.3-.6,3.6-2.4.3Z"/><path class="cls-1" d="M228.9,208.4a1.76,1.76,0,0,1,.1-.6l1.7-9.4h-2.5l.3-1.9H231l.6-3.4,2.4-.3-.7,3.8h3.8l-.4,1.9h-3.8l-1.7,9.4v.3c0,.4.2.6.8.6a6.9,6.9,0,0,0,2.6-.6l.5,1.6a8.19,8.19,0,0,1-3.8.9A2.18,2.18,0,0,1,228.9,208.4Z"/><path class="cls-1" d="M247.3,196.6l2.4-.3-2.5,14.1h-2.3Zm1-5.9,2.4-.3-.6,3.6-2.4.3Z"/><path class="cls-1" d="M268.7,210.4h-1.9l.1-1.7a7.57,7.57,0,0,1-5.2,2,2.56,2.56,0,0,1-2.9-2.8c0-.3.1-.7.1-1.1l1-5.5c.6-3.4,1.9-5.1,6.3-5.1a15.87,15.87,0,0,1,5,.9Zm-.3-11.9a10.59,10.59,0,0,0-2.7-.3c-2.2,0-3.2.7-3.7,3.4l-.9,5a3.4,3.4,0,0,0-.1,1c0,.7.3,1,1.1,1,1.8,0,3.3-1,4.9-2.4Z"/><path class="cls-1" d="M281.3,208.4a1.76,1.76,0,0,1,.1-.6l1.7-9.4h-2.5l.3-1.9h2.5l.6-3.4,2.4-.3-.7,3.8h3.8l-.4,1.9h-3.8l-1.7,9.4v.3c0,.4.2.6.8.6a6.9,6.9,0,0,0,2.6-.6l.5,1.6a8.19,8.19,0,0,1-3.8.9A2.18,2.18,0,0,1,281.3,208.4Z"/><path class="cls-1" d="M299.7,196.6l2.4-.3-2.5,14.1h-2.3Zm1-5.9,2.4-.3-.6,3.6-2.4.3Z"/><path class="cls-1" d="M313.7,210.4l-2.2-13.8,2.3-.3,1.8,12.2,4-8.3a4.55,4.55,0,0,0,.5-2.1,7.72,7.72,0,0,0-.2-1.5l2.3-.3a9,9,0,0,1,.2,1.8,4.51,4.51,0,0,1-.5,2.4l-4.8,9.9Z"/><path class="cls-1" d="M332.8,206.7a1.76,1.76,0,0,0-.1.6c0,.9.4,1.4,1.9,1.4a11.19,11.19,0,0,0,5.1-1.5l.5,1.7a11.63,11.63,0,0,1-5.9,1.7c-2.8,0-3.9-1.3-3.9-3.2a6.64,6.64,0,0,1,.1-1.3l.8-4.7c.6-3.5,2.2-5.3,6.2-5.3,2.3,0,4,1.1,4,3.2,0,2.4-1.1,3.5-5,4.8-1.7.6-2.2.7-3.4,1.1Zm6.5-7.1c0-.9-.7-1.5-1.9-1.5-2.2,0-3.2.8-3.6,3.1l-.3,1.9c.8-.2,1.2-.4,2.6-.8C338.3,201.6,339.3,200.7,339.3,199.6Z"/><path class="cls-1" d="M373.2,210.4h-2.1l.1-1.7a8,8,0,0,1-5.3,2c-2.2,0-2.9-1.2-2.9-2.8a4.48,4.48,0,0,1,.1-1.1l1-5.5c.6-3.4,1.8-5.2,6.2-5.2a10.12,10.12,0,0,1,2.9.4l1-5.8,2.4-.3Zm-.3-11.9a12.65,12.65,0,0,0-2.8-.3c-2.5,0-3.2.7-3.7,3.4l-.9,5.1a2.77,2.77,0,0,0-.1.9,1,1,0,0,0,1.1,1.1,8.46,8.46,0,0,0,5-2.3Z"/><path class="cls-1" d="M387.5,190.7h1.8l-1.2,7h-1.8Z"/><path class="cls-1" d="M399.7,206.7a1.76,1.76,0,0,0-.1.6c0,.9.4,1.4,1.9,1.4a11.19,11.19,0,0,0,5.1-1.5l.5,1.7a11.63,11.63,0,0,1-5.9,1.7c-2.8,0-3.9-1.3-3.9-3.2a6.64,6.64,0,0,1,.1-1.3l.8-4.7c.6-3.5,2.2-5.3,6.2-5.3,2.3,0,4,1.1,4,3.2,0,2.4-1.1,3.5-5,4.8-1.7.6-2.2.7-3.4,1.1Zm6.5-7.1c0-.9-.7-1.5-1.9-1.5-2.2,0-3.2.8-3.6,3.1l-.3,1.9c.8-.2,1.2-.4,2.6-.8C405.2,201.6,406.2,200.7,406.2,199.6Z"/><path class="cls-1" d="M421.2,203.4l-3.2-6.8,2.2-.3,2.6,5.5,4.1-5.4h2.7l-5.8,7.2,3.3,6.8h-2.4l-2.4-5-4.2,5h-2.6Z"/><path class="cls-1" d="M446.8,198.7a11.07,11.07,0,0,0-3-.5c-2.3,0-3.1.8-3.6,3.4l-.9,5.2c0,.2-.1.4-.1.6,0,.9.5,1.2,1.7,1.2a13.79,13.79,0,0,0,4.3-.9l.3,1.9a12.6,12.6,0,0,1-4.9,1.1c-2.6,0-3.8-1.2-3.8-3.1a5.38,5.38,0,0,1,.1-1.1l.9-5.2c.7-3.9,2.3-5.1,6-5.1a10.16,10.16,0,0,1,3.4.6Z"/><path class="cls-1" d="M457.8,206.7a1.76,1.76,0,0,0-.1.6c0,.9.4,1.4,1.9,1.4a11.19,11.19,0,0,0,5.1-1.5l.5,1.7a11.63,11.63,0,0,1-5.9,1.7c-2.8,0-3.9-1.3-3.9-3.2a6.64,6.64,0,0,1,.1-1.3l.8-4.7c.6-3.5,2.2-5.3,6.2-5.3,2.3,0,4,1.1,4,3.2,0,2.4-1.1,3.5-5,4.8-1.7.6-2.2.7-3.4,1.1Zm6.5-7.1c0-.9-.7-1.5-1.9-1.5-2.2,0-3.2.8-3.6,3.1l-.3,1.9c.8-.2,1.2-.4,2.6-.8C463.3,201.6,464.3,200.7,464.3,199.6Z"/><path class="cls-1" d="M478.5,190.7l2.4-.3-3.5,20h-2.3Z"/><path class="cls-1" d="M492.2,190.7l2.4-.3-3.5,20h-2.3Z"/><path class="cls-1" d="M505,206.7a1.76,1.76,0,0,0-.1.6c0,.9.4,1.4,1.9,1.4a11.19,11.19,0,0,0,5.1-1.5l.5,1.7a11.63,11.63,0,0,1-5.9,1.7c-2.8,0-3.9-1.3-3.9-3.2a6.64,6.64,0,0,1,.1-1.3l.8-4.7c.6-3.5,2.2-5.3,6.2-5.3,2.3,0,4,1.1,4,3.2,0,2.4-1.1,3.5-5,4.8-1.7.6-2.2.7-3.4,1.1Zm6.5-7.1c0-.9-.7-1.5-1.9-1.5-2.2,0-3.2.8-3.6,3.1l-.3,1.9c.8-.2,1.2-.4,2.6-.8C510.6,201.6,511.5,200.7,511.5,199.6Z"/><path class="cls-1" d="M534.9,198.6a5.74,5.74,0,0,1-.1,1.2l-1.9,10.6h-2.3l1.9-10.7a4.33,4.33,0,0,1,.1-.5c0-.6-.3-.8-1-.8-1.4,0-3.6,1-5.3,2.1l-1.8,9.9h-2.3l2.4-13.8,2.1-.3-.2,2a12.73,12.73,0,0,1,5.9-2.1A2.12,2.12,0,0,1,534.9,198.6Z"/><path class="cls-1" d="M554.1,198.7a11.07,11.07,0,0,0-3-.5c-2.3,0-3.1.8-3.6,3.4l-.9,5.2c0,.2-.1.4-.1.6,0,.9.5,1.2,1.7,1.2a13.79,13.79,0,0,0,4.3-.9l.3,1.9a12.6,12.6,0,0,1-4.9,1.1c-2.6,0-3.8-1.2-3.8-3.1a5.38,5.38,0,0,1,.1-1.1l.9-5.2c.7-3.9,2.3-5.1,6-5.1a10.16,10.16,0,0,1,3.4.6Z"/><path class="cls-1" d="M565.2,206.7a1.76,1.76,0,0,0-.1.6c0,.9.4,1.4,1.9,1.4a11.19,11.19,0,0,0,5.1-1.5l.5,1.7a11.63,11.63,0,0,1-5.9,1.7c-2.8,0-3.9-1.3-3.9-3.2a6.64,6.64,0,0,1,.1-1.3l.8-4.7c.6-3.5,2.2-5.3,6.2-5.3,2.3,0,4,1.1,4,3.2,0,2.4-1.1,3.5-5,4.8-1.7.6-2.2.7-3.4,1.1Zm6.5-7.1c0-.9-.7-1.5-1.9-1.5-2.2,0-3.2.8-3.6,3.1l-.3,1.9c.8-.2,1.2-.4,2.6-.8C570.7,201.6,571.7,200.7,571.7,199.6Z"/></g></g></svg>